<?xml version="1.0" encoding="utf-8"?>
<!-- Generator: Adobe Illustrator 19.1.0, SVG Export Plug-In . SVG Version: 6.00 Build 0)  -->
<svg version="1.1" id="Layer_1" xmlns="http://www.w3.org/2000/svg" xmlns:xlink="http://www.w3.org/1999/xlink" x="0px" y="0px"
	 viewBox="22 -29.5 63.4 61.5" style="enable-background:new 22 -29.5 63.4 61.5;" xml:space="preserve">
<style type="text/css">
	.st0{fill:#117FCA;}
</style>
<path class="st0" d="M84.7-11.8c0.6,0.7,0.8,1.6,0.6,2.5L82.7,6.2c-0.1,0.8-0.5,1.5-1.1,2c-0.6,0.5-1.3,0.8-2.1,0.8H40.7l-0.8,4.4
	h36.9c0.9,0,1.7,0.3,2.3,1c0.7,0.6,1,1.4,1,2.4c0,0.9-0.3,1.7-1,2.4c-0.7,0.6-1.4,1-2.3,1H36c-1,0-1.8-0.4-2.5-1.2
	c-0.7-0.8-0.9-1.7-0.8-2.8l1.7-9.6l-2.7-27L24.3-23c-0.9-0.3-1.5-0.8-1.9-1.6s-0.5-1.6-0.2-2.5c0.3-0.9,0.8-1.5,1.6-1.9
	c0.8-0.4,1.6-0.5,2.5-0.2l9.6,3.1c0.6,0.2,1.1,0.5,1.5,1.1c0.4,0.5,0.6,1.1,0.7,1.8l0.6,5.4l43.8,4.9C83.4-13,84.2-12.5,84.7-11.8z
	 M41,21.7c1.4,0,2.6,0.5,3.6,1.5c1,1,1.5,2.2,1.5,3.6c0,1.4-0.5,2.6-1.5,3.6c-1,1-2.2,1.5-3.6,1.5c-1.4,0-2.6-0.5-3.6-1.5
	c-1-1-1.5-2.2-1.5-3.6c0-1.4,0.5-2.6,1.5-3.6C38.4,22.2,39.6,21.7,41,21.7z M70.8,21.7c1.4,0,2.6,0.5,3.6,1.5s1.5,2.2,1.5,3.6
	c0,1.4-0.5,2.6-1.5,3.6c-1,1-2.2,1.5-3.6,1.5c-1.4,0-2.6-0.5-3.6-1.5c-1-1-1.5-2.2-1.5-3.6c0-1.4,0.5-2.6,1.5-3.6
	C68.3,22.2,69.4,21.7,70.8,21.7z"/>
</svg>
